<?xml version="1.0" encoding="UTF-8"?>
<svg id="_レイヤー_2" data-name="レイヤー 2" xmlns="http://www.w3.org/2000/svg" viewBox="0 0 8.69 8.75">
  <defs>
    <style>
      .cls-1 {
        fill: #2d2d2d;
      }
    </style>
  </defs>
  <g id="_レイヤー_1-2" data-name="レイヤー 1">
    <path class="cls-1" d="M8.69,4.03c0,2.01-.91,3.01-1.27,3.36-.38.36-1.31,1.37-3.26,1.37C1.57,8.75.03,6.73.03,4.53.03,2.72.87,1.67,1.68,1c.73-.6,1.72-1,3.05-1,2.4,0,3.96,1.74,3.96,4.03ZM4.2.61C1.98.61,1.17,2.22,1.17,4.11c0,2.17,1.2,4.02,3.49,4.02,1.98,0,2.93-1.61,2.93-3.61,0-2.16-1.18-3.91-3.38-3.91Z"/>
    <g>
      <path class="cls-1" d="M6.43,2.59c-.41-1.07-1.85-1.55-2.82-.97l.03.1c.33,0,.66.05.95.12.92.23,1.48.97,1.82,1.83,0,0,.1,0,.1,0,.1-.35.05-.73-.08-1.08Z"/>
      <path class="cls-1" d="M4.17,6.92c-.93-.22-1.5-.97-1.82-1.85h-.1c-.09.36-.04.73.09,1.08.42,1.06,1.83,1.53,2.81.98l-.03-.1c-.33,0-.65-.03-.95-.11Z"/>
      <path class="cls-1" d="M.01,8.61s.06.08.06.08c.78.22,1.18-.15,1.1-.94,0,0-.06-.08-.06-.08-.76-.2-1.2.14-1.1.94Z"/>
    </g>
  </g>
</svg>