<?xml version="1.0" encoding="UTF-8"?>
<svg id="_レイヤー_2" data-name="レイヤー 2" xmlns="http://www.w3.org/2000/svg" viewBox="0 0 18.5 18.77">
  <defs>
    <style>
      .cls-1 {
        fill: #2d2d2d;
      }
    </style>
  </defs>
  <g id="_レイヤー_1-2" data-name="レイヤー 1">
    <g>
      <path class="cls-1" d="M8.69,4.03c0,2.01-.91,3.01-1.27,3.36-.38.36-1.31,1.37-3.26,1.37C1.57,8.75.03,6.73.03,4.53.03,2.72.87,1.67,1.68,1c.73-.6,1.72-1,3.05-1,2.4,0,3.96,1.74,3.96,4.03ZM4.2.61C1.98.61,1.17,2.22,1.17,4.11c0,2.17,1.2,4.02,3.49,4.02,1.98,0,2.93-1.61,2.93-3.61,0-2.16-1.18-3.91-3.38-3.91Z"/>
      <path class="cls-1" d="M17.66,2.31c-.02.46-.42.44-.48.04-.05-.44-.12-.78-.34-1-.29-.32-.88-.76-2.39-.76-2.3,0-3.29,1.56-3.29,3.45,0,2.51,1.32,4.1,3.68,4.1.98,0,1.86-.19,1.86-1.07,0-.44,0-1.04-.02-1.24-.02-.2-.05-.32-.2-.4-.17-.08-.4-.12-.89-.18-.42-.05-.41-.44.04-.44.13,0,.44.01.76.01,1.04,0,1.57-.06,1.8-.07.4-.04.41.32.04.43-.48.13-.52.2-.52.71v.98c0,.38.04.43.31.54.2.06.11.35-.07.42-.48.19-1.97.9-3.65.9-2.89,0-4.33-2.07-4.33-4.32,0-1.28.5-2.42,1.59-3.31,1.03-.83,2.28-1.13,3.41-1.13.98,0,1.77.23,2.23.46.12-.13.25-.24.36-.3.17-.11.42-.05.37.13-.18.58-.25,1.24-.28,2.03Z"/>
    </g>
    <g>
      <path class="cls-1" d="M3.93,13.86c.11.1.18.19.18.36,0,.21-.12.45-.18.55-.08.14-.22.26-.35.03-.15-.27-.52-.67-1.28-.67-.81,0-1.38.56-1.38,1.85,0,1.6.99,2.07,1.74,2.07.43,0,.78-.13,1.23-.46.29-.22.43.05.18.34-.44.47-1.08.84-1.97.84C.95,18.75.05,17.64.05,16.3c0-1.21.78-1.95,1.25-2.26.64-.43,1.27-.51,1.61-.51.61,0,.9.21,1.01.32Z"/>
      <path class="cls-1" d="M8.1,15.44c-.04-1.04-.67-1.34-1.19-1.34-.41,0-.61.15-.72.36-.11.2-.16.5-.25.73-.08.22-.33.28-.46-.03-.07-.15-.11-.32-.11-.47,0-.13.03-.22.15-.32.54-.42,1.47-.82,1.83-.82,1.25,0,1.5,1.03,1.5,1.72s-.03,2.32-.03,2.45c0,.11.01.18.03.21.09.17.4.16.6.16.22-.01.22.27,0,.4-.24.16-.64.26-1,.25-.34-.01-.38-.31-.4-.83-.76.64-1.32.88-1.8.88-.42,0-1.13-.35-1.13-1.31s1.38-1.51,2.57-1.51c.11,0,.25.01.41.02v-.54ZM8.1,16.52c0-.06-.03-.06-.07-.07-.17-.03-.39-.05-.83-.04-.73.01-1.21.35-1.21.9,0,.41.22.78.81.78.33,0,.72-.08,1.18-.61.08-.09.13-.15.13-.38v-.57Z"/>
      <path class="cls-1" d="M11.33,14.33c-.51,0-.78-.01-.84-.02-.06-.01-.08-.06-.08-.14,0-.12.19-.35.25-.38.07-.02.18-.04.67-.04.02-1.16.12-1.73.61-2.45.57-.83,1.35-1.17,1.89-1.17.46,0,.74.12.91.28.12.12.14.24.14.34,0,.21-.14.43-.28.59-.09.11-.21.09-.27.03-.24-.28-.61-.54-1.04-.54-.56,0-1.14.22-1.14,2.75v.16h.6c.24,0,.47-.01.57-.03.07-.02.12.02.12.1s-.07.36-.17.44c-.04.05-.14.07-.69.07h-.43v2.52c0,.42.01.71.02.89.02.37.07.43.62.51.41.04.4.39-.02.39-.23,0-.44-.02-.95-.02-.43,0-.78.02-.97.02-.4,0-.4-.33-.03-.39.44-.08.47-.18.5-.52.02-.14.03-.41.03-.83v-2.56Z"/>
      <path class="cls-1" d="M16.81,18.04c.63,0,.96-.25,1.18-.38.33-.2.42.09.16.36-.16.15-.82.73-1.85.73-1.22,0-2.08-1.06-2.08-2.5,0-1.02.46-1.71.91-2.11.38-.33.9-.6,1.48-.6,1.23,0,1.7,1.01,1.71,1.67.06.03.12.06.12.16,0,.19-.21.33-.4.38-.42.12-.96.23-2.97.23.02,1.4.73,2.07,1.75,2.07ZM15.15,15.47c.06.01.26.02.39.02.99,0,1.67-.04,1.92-.09.04-.02.05-.06.05-.12-.03-.81-.67-1.21-1.25-1.21s-1.05.38-1.17,1.31c0,.06.01.08.06.09Z"/>
    </g>
    <g>
      <path class="cls-1" d="M6.43,2.59c-.41-1.07-1.85-1.55-2.82-.97l.03.1c.33,0,.66.05.95.12.92.23,1.48.97,1.82,1.83,0,0,.1,0,.1,0,.1-.35.05-.73-.08-1.08Z"/>
      <path class="cls-1" d="M4.17,6.92c-.93-.22-1.5-.97-1.82-1.85h-.1c-.09.36-.04.73.09,1.08.42,1.06,1.83,1.53,2.81.98l-.03-.1c-.33,0-.65-.03-.95-.11Z"/>
      <path class="cls-1" d="M.01,8.61s.06.08.06.08c.78.22,1.18-.15,1.1-.94,0,0-.06-.08-.06-.08-.76-.2-1.2.14-1.1.94Z"/>
    </g>
  </g>
</svg>